<svg width="50" height="35" viewBox="0 0 50 35" fill="none" xmlns="http://www.w3.org/2000/svg">
    <path
        d="M10.8555 14.625C16.0112 14.6253 20.21 18.8397 20.21 24.0625C20.21 29.2853 16.0112 33.4997 10.8555 33.5C5.69954 33.5 1.5 29.2854 1.5 24.0625C1.5 18.8396 5.69955 14.625 10.8555 14.625Z"
        stroke="#1B1B1B" stroke-width="3" />
    <path
        d="M39.1455 14.625C44.3012 14.6253 48.5 18.8397 48.5 24.0625C48.5 29.2853 44.3012 33.4997 39.1455 33.5C33.9896 33.5 29.79 29.2854 29.79 24.0625C29.79 18.8396 33.9896 14.625 39.1455 14.625Z"
        stroke="#1B1B1B" stroke-width="3" />
    <rect x="14.1759" y="10.9414" width="16.2825" height="2.1875" fill="#1B1B1B" />
    <rect x="37.7546" y="4.65234" width="3.1162" height="19.886" fill="#1B1B1B" />
    <rect x="35.8872" y="3.28516" width="8.68399" height="2.1875" fill="#1B1B1B" />
    <rect x="14.1759" y="3.28516" width="3.25649" height="7.65625" fill="#1B1B1B" />
    <rect x="10.9214" y="1.09766" width="8.68399" height="2.1875" fill="#1B1B1B" />
    <rect x="30.4604" y="10.9414" width="7.59849" height="2.1875" fill="#1B1B1B" />
    <path d="M40.8158 24.7212V21.6367L43.877 24.7212H40.8158Z" fill="#1B1B1B" />
    <path d="M10.9207 1.09375V0L19.6047 1.09375H10.9207Z" fill="#1B1B1B" />
    <path d="M16.3263 24.7188L38.775 13.4091" stroke="#1B1B1B" stroke-width="3" />
    <rect x="34.6934" y="23.6914" width="10.2039" height="2.0563" fill="#1B1B1B" />
    <path d="M8.32857 24.5359H15.5997V10.9297L8.32857 24.5359Z" stroke="#1B1B1B" stroke-width="3" />
</svg>