<svg width="50" height="34" viewBox="0 0 50 34" fill="none" xmlns="http://www.w3.org/2000/svg">
    <path
        d="M10.6377 14.2506C15.6863 14.2506 19.7764 18.338 19.7764 23.3756C19.7762 28.4131 15.6862 32.4997 10.6377 32.4997C5.58939 32.4995 1.50017 28.413 1.5 23.3756C1.5 18.3381 5.58928 14.2508 10.6377 14.2506Z"
        stroke="#1B1B1B" stroke-width="3" />
    <path
        d="M39.3623 14.2506C44.4109 14.2506 48.501 18.338 48.501 23.3756C48.5008 28.4131 44.4108 32.4997 39.3623 32.4997C34.314 32.4995 30.2248 28.413 30.2246 23.3756C30.2246 18.3381 34.3139 14.2508 39.3623 14.2506Z"
        stroke="#1B1B1B" stroke-width="3" />
    <rect x="14.8926" y="9.56298" width="15.957" height="2.12494" fill="#1B1B1B" />
    <rect x="14.8926" y="11.6881" width="3.19141" height="13.8121" fill="#1B1B1B" />
    <rect x="12.7656" y="20.1885" width="2.1276" height="5.31234" fill="#1B1B1B" />
    <rect x="7.44727" y="22.3136" width="4.25521" height="3.1874" fill="#1B1B1B" />
    <rect x="38.2969" y="4.25021" width="3.19141" height="19.1244" fill="#1B1B1B" />
    <rect x="36.1699" y="3.18766" width="8.51042" height="2.12494" fill="#1B1B1B" />
    <rect x="14.8926" y="2.12511" width="3.19141" height="7.43728" fill="#1B1B1B" />
    <rect x="11.7031" width="9.57422" height="2.12494" fill="#1B1B1B" />
    <path d="M14.8945 4.25004V2.12511H11.7031L14.8945 4.25004Z" fill="#1B1B1B" />
    <rect x="30.8516" y="9.56298" width="7.44661" height="2.12494" fill="#1B1B1B" />
    <path d="M13.8307 25.5008V20.1885L8.51172 25.5008H13.8307Z" fill="#1B1B1B" />
    <path d="M41.4876 22.3134V20.1885L43.6152 22.3134H41.4876Z" fill="#1B1B1B" />
    <path d="M38.2975 22.3134V20.1885L36.1699 22.3134H38.2975Z" fill="#1B1B1B" />
    <path d="M18.0846 25.4975L38.2969 11.6854" stroke="#1B1B1B" stroke-width="3" />
    <rect x="36.1699" y="22.3136" width="7.44661" height="3.1874" fill="#1B1B1B" />
</svg>