<svg width="50" height="33" viewBox="0 0 50 33" fill="none" xmlns="http://www.w3.org/2000/svg">
    <path
        d="M10.8691 12.4978C16.0267 12.4978 20.2392 16.7345 20.2393 21.9988C20.2393 27.2632 16.0268 31.4998 10.8691 31.4998C5.71165 31.4996 1.5 27.2631 1.5 21.9988C1.50005 16.7346 5.71168 12.498 10.8691 12.4978Z"
        stroke="#1B1B1B" stroke-width="3" />
    <path
        d="M39.1309 12.4978C44.2885 12.4978 48.5009 16.7345 48.501 21.9988C48.501 27.2632 44.2885 31.4998 39.1309 31.4998C33.9734 31.4996 29.7617 27.2631 29.7617 21.9988C29.7618 16.7346 33.9734 12.498 39.1309 12.4978Z"
        stroke="#1B1B1B" stroke-width="3" />
    <rect x="10.8691" y="18.7044" width="7.60861" height="5.50054" fill="#1B1B1B" />
    <path d="M31.5219 14.1926L18.4785 24.2035V18.703L29.7228 9.90209H31.5219L34.2392 12.1023L31.5219 14.1926Z"
        fill="#1B1B1B" />
    <rect x="11.957" y="7.69849" width="19.565" height="2.20022" fill="#1B1B1B" />
    <rect x="10.8691" y="7.69849" width="5.43472" height="14.3014" fill="#1B1B1B" />
    <rect x="35.8711" y="3.29935" width="5.43472" height="18.7018" fill="#1B1B1B" />
    <rect x="35.8711" y="1.09978" width="5.43472" height="2.20022" fill="#1B1B1B" />
    <rect x="41.3047" y="1.09978" width="5.43472" height="2.20022" fill="#1B1B1B" />
    <rect x="46.7402" y="1.09978" width="1.08694" height="7.70076" fill="#1B1B1B" />
    <path d="M41.3058 22.0037V24.204L35.8711 22.0037H41.3058Z" fill="#1B1B1B" />
    <rect x="10.8691" y="2.19957" width="4.34778" height="5.50054" fill="#1B1B1B" />
    <rect x="7.60938" width="11.9564" height="2.20022" fill="#1B1B1B" />
    <path d="M46.7404 7.69978V3.29935H42.3926L46.7404 7.69978Z" fill="#1B1B1B" />
    <path d="M46.7404 7.69978V3.29935H42.3926L46.7404 7.69978Z" fill="#1B1B1B" />
    <path d="M46.7404 6.60209V8.8023H42.3926L46.7404 6.60209Z" fill="#1B1B1B" />
    <path d="M10.8702 4.39978V2.19957H7.60938L10.8702 4.39978Z" fill="#1B1B1B" />
    <rect x="31.5215" y="7.69849" width="4.34778" height="4.40043" fill="#1B1B1B" />
</svg>