<svg width="51" height="37" viewBox="0 0 51 37" fill="none" xmlns="http://www.w3.org/2000/svg">
    <rect x="0.263474" y="27.9515" width="2.65613" height="2.65613" fill="#1B1B1B" stroke="#1B1B1B"
        stroke-width="0.5" />
    <rect x="0.263474" y="25.2601" width="2.65613" height="2.65613" fill="#1B1B1B" stroke="#1B1B1B"
        stroke-width="0.5" />
    <rect x="0.263474" y="22.5726" width="2.65613" height="2.65613" fill="#1B1B1B" stroke="#1B1B1B"
        stroke-width="0.5" />
    <rect x="0.25" y="19.889" width="2.65613" height="2.65613" fill="#1B1B1B" stroke="#1B1B1B" stroke-width="0.5" />
    <rect x="2.86031" y="17.1937" width="2.65613" height="2.65613" fill="#1B1B1B" stroke="#1B1B1B" stroke-width="0.5" />
    <rect x="15.982" y="17.1937" width="2.65613" height="2.65613" fill="#1B1B1B" stroke="#1B1B1B" stroke-width="0.5" />
    <rect x="2.86031" y="30.6351" width="2.65613" height="2.65613" fill="#1B1B1B" stroke="#1B1B1B" stroke-width="0.5" />
    <rect x="5.48503" y="33.307" width="2.65613" height="2.65613" fill="#1B1B1B" stroke="#1B1B1B" stroke-width="0.5" />
    <rect x="5.48503" y="14.4922" width="2.65613" height="2.65613" fill="#1B1B1B" stroke="#1B1B1B" stroke-width="0.5" />
    <rect x="8.10977" y="33.307" width="2.65613" height="2.65613" fill="#1B1B1B" stroke="#1B1B1B" stroke-width="0.5" />
    <rect x="8.10977" y="14.5257" width="2.65613" height="2.65613" fill="#1B1B1B" stroke="#1B1B1B" stroke-width="0.5" />
    <rect x="10.7345" y="33.307" width="2.65613" height="2.65613" fill="#1B1B1B" stroke="#1B1B1B" stroke-width="0.5" />
    <rect x="10.7345" y="14.5257" width="2.65613" height="2.65613" fill="#1B1B1B" stroke="#1B1B1B" stroke-width="0.5" />
    <rect x="13.3572" y="33.3444" width="2.65613" height="2.65613" fill="#1B1B1B" stroke="#1B1B1B" stroke-width="0.5" />
    <rect x="13.3572" y="14.5257" width="2.65613" height="2.65613" fill="#1B1B1B" stroke="#1B1B1B" stroke-width="0.5" />
    <rect x="15.982" y="30.6351" width="2.65613" height="2.65613" fill="#1B1B1B" stroke="#1B1B1B" stroke-width="0.5" />
    <rect x="18.5943" y="27.9515" width="2.65613" height="2.65613" fill="#1B1B1B" stroke="#1B1B1B" stroke-width="0.5" />
    <rect x="18.5808" y="25.2601" width="2.65613" height="2.65613" fill="#1B1B1B" stroke="#1B1B1B" stroke-width="0.5" />
    <rect x="18.5808" y="22.5726" width="2.65613" height="2.65613" fill="#1B1B1B" stroke="#1B1B1B" stroke-width="0.5" />
    <rect x="18.5808" y="19.889" width="2.65613" height="2.65613" fill="#1B1B1B" stroke="#1B1B1B" stroke-width="0.5" />
    <rect x="29.2627" y="27.9515" width="2.65613" height="2.65613" fill="#1B1B1B" stroke="#1B1B1B" stroke-width="0.5" />
    <rect x="29.2627" y="25.2601" width="2.65613" height="2.65613" fill="#1B1B1B" stroke="#1B1B1B" stroke-width="0.5" />
    <rect x="29.2627" y="22.5726" width="2.65613" height="2.65613" fill="#1B1B1B" stroke="#1B1B1B" stroke-width="0.5" />
    <rect x="29.2492" y="19.889" width="2.65613" height="2.65613" fill="#1B1B1B" stroke="#1B1B1B" stroke-width="0.5" />
    <rect x="31.8595" y="17.1937" width="2.65613" height="2.65613" fill="#1B1B1B" stroke="#1B1B1B" stroke-width="0.5" />
    <rect x="44.9832" y="17.1937" width="2.65613" height="2.65613" fill="#1B1B1B" stroke="#1B1B1B" stroke-width="0.5" />
    <rect x="31.8595" y="30.6351" width="2.65613" height="2.65613" fill="#1B1B1B" stroke="#1B1B1B" stroke-width="0.5" />
    <rect x="34.4842" y="33.307" width="2.65613" height="2.65613" fill="#1B1B1B" stroke="#1B1B1B" stroke-width="0.5" />
    <rect x="34.4842" y="14.4922" width="2.65613" height="2.65613" fill="#1B1B1B" stroke="#1B1B1B" stroke-width="0.5" />
    <rect x="37.109" y="33.307" width="2.65613" height="2.65613" fill="#1B1B1B" stroke="#1B1B1B" stroke-width="0.5" />
    <rect x="37.109" y="14.5257" width="2.65613" height="2.65613" fill="#1B1B1B" stroke="#1B1B1B" stroke-width="0.5" />
    <rect x="39.7337" y="33.307" width="2.65613" height="2.65613" fill="#1B1B1B" stroke="#1B1B1B" stroke-width="0.5" />
    <rect x="39.7337" y="14.5257" width="2.65613" height="2.65613" fill="#1B1B1B" stroke="#1B1B1B" stroke-width="0.5" />
    <rect x="42.3584" y="33.3444" width="2.65613" height="2.65613" fill="#1B1B1B" stroke="#1B1B1B" stroke-width="0.5" />
    <rect x="42.3584" y="14.5257" width="2.65613" height="2.65613" fill="#1B1B1B" stroke="#1B1B1B" stroke-width="0.5" />
    <rect x="44.9832" y="30.6351" width="2.65613" height="2.65613" fill="#1B1B1B" stroke="#1B1B1B" stroke-width="0.5" />
    <rect x="47.5935" y="27.9515" width="2.65613" height="2.65613" fill="#1B1B1B" stroke="#1B1B1B" stroke-width="0.5" />
    <rect x="47.58" y="25.2601" width="2.65613" height="2.65613" fill="#1B1B1B" stroke="#1B1B1B" stroke-width="0.5" />
    <rect x="47.58" y="22.5726" width="2.65613" height="2.65613" fill="#1B1B1B" stroke="#1B1B1B" stroke-width="0.5" />
    <rect x="47.58" y="19.889" width="2.65613" height="2.65613" fill="#1B1B1B" stroke="#1B1B1B" stroke-width="0.5" />
    <rect x="14.4259" y="11.9414" width="16.2823" height="2.1875" fill="#1B1B1B" />
    <rect x="38.0027" y="5.65234" width="3.11617" height="19.886" fill="#1B1B1B" />
    <rect x="36.1373" y="4.28516" width="8.68389" height="2.1875" fill="#1B1B1B" />
    <rect x="14.25" y="3" width="3" height="9" fill="#1B1B1B" />
    <rect x="11.25" y="1" width="9" height="2" fill="#1B1B1B" />
    <rect x="30.7104" y="11.9414" width="7.5984" height="2.1875" fill="#1B1B1B" />
    <path d="M41.0659 25.7212V22.6367L44.1271 25.7212H41.0659Z" fill="#1B1B1B" />
    <path d="M11.25 1V0L20.25 1H11.25Z" fill="#1B1B1B" />
    <path d="M16.5767 25.7188L39.0251 14.4091" stroke="#1B1B1B" stroke-width="3" />
    <rect x="34.9435" y="24.6914" width="10.2038" height="2.0563" fill="#1B1B1B" />
    <path d="M8.5786 25.5359H15.8497V11.9297L8.5786 25.5359Z" stroke="#1B1B1B" stroke-width="3" />
</svg>