<svg width="51" height="35" viewBox="0 0 51 35" fill="none" xmlns="http://www.w3.org/2000/svg">
    <rect x="0.25" y="26.3202" width="2.54732" height="2.54732" fill="#1B1B1B" stroke="#1B1B1B" stroke-width="0.5" />
    <rect x="0.25" y="23.7566" width="2.54732" height="2.54732" fill="#1B1B1B" stroke="#1B1B1B" stroke-width="0.5" />
    <rect x="0.25" y="21.1931" width="2.54732" height="2.54732" fill="#1B1B1B" stroke="#1B1B1B" stroke-width="0.5" />
    <rect x="0.25" y="18.6336" width="2.54732" height="2.54732" fill="#1B1B1B" stroke="#1B1B1B" stroke-width="0.5" />
    <rect x="2.77414" y="16.066" width="2.54732" height="2.54732" fill="#1B1B1B" stroke="#1B1B1B" stroke-width="0.5" />
    <rect x="15.4343" y="16.066" width="2.54732" height="2.54732" fill="#1B1B1B" stroke="#1B1B1B" stroke-width="0.5" />
    <rect x="2.77414" y="28.8797" width="2.54732" height="2.54732" fill="#1B1B1B" stroke="#1B1B1B" stroke-width="0.5" />
    <rect x="5.30734" y="31.4271" width="2.54732" height="2.54732" fill="#1B1B1B" stroke="#1B1B1B" stroke-width="0.5" />
    <rect x="5.30734" y="13.4954" width="2.54732" height="2.54732" fill="#1B1B1B" stroke="#1B1B1B" stroke-width="0.5" />
    <rect x="7.83859" y="31.4271" width="2.54732" height="2.54732" fill="#1B1B1B" stroke="#1B1B1B" stroke-width="0.5" />
    <rect x="7.83859" y="13.5226" width="2.54732" height="2.54732" fill="#1B1B1B" stroke="#1B1B1B" stroke-width="0.5" />
    <rect x="10.3718" y="31.4271" width="2.54732" height="2.54732" fill="#1B1B1B" stroke="#1B1B1B" stroke-width="0.5" />
    <rect x="10.3718" y="13.5226" width="2.54732" height="2.54732" fill="#1B1B1B" stroke="#1B1B1B" stroke-width="0.5" />
    <rect x="12.9011" y="31.4543" width="2.54732" height="2.54732" fill="#1B1B1B" stroke="#1B1B1B" stroke-width="0.5" />
    <rect x="12.9011" y="13.5226" width="2.54732" height="2.54732" fill="#1B1B1B" stroke="#1B1B1B" stroke-width="0.5" />
    <rect x="15.4343" y="28.8797" width="2.54732" height="2.54732" fill="#1B1B1B" stroke="#1B1B1B" stroke-width="0.5" />
    <rect x="17.9584" y="26.3202" width="2.54732" height="2.54732" fill="#1B1B1B" stroke="#1B1B1B" stroke-width="0.5" />
    <rect x="17.9584" y="23.7566" width="2.54732" height="2.54732" fill="#1B1B1B" stroke="#1B1B1B" stroke-width="0.5" />
    <rect x="17.9584" y="21.1931" width="2.54732" height="2.54732" fill="#1B1B1B" stroke="#1B1B1B" stroke-width="0.5" />
    <rect x="17.9584" y="18.6336" width="2.54732" height="2.54732" fill="#1B1B1B" stroke="#1B1B1B" stroke-width="0.5" />
    <rect x="29.9941" y="26.3202" width="2.54732" height="2.54732" fill="#1B1B1B" stroke="#1B1B1B" stroke-width="0.5" />
    <rect x="29.9941" y="23.7566" width="2.54732" height="2.54732" fill="#1B1B1B" stroke="#1B1B1B" stroke-width="0.5" />
    <rect x="29.9941" y="21.1931" width="2.54732" height="2.54732" fill="#1B1B1B" stroke="#1B1B1B" stroke-width="0.5" />
    <rect x="29.9941" y="18.6336" width="2.54732" height="2.54732" fill="#1B1B1B" stroke="#1B1B1B" stroke-width="0.5" />
    <rect x="32.5183" y="16.066" width="2.54732" height="2.54732" fill="#1B1B1B" stroke="#1B1B1B" stroke-width="0.5" />
    <rect x="45.1784" y="16.066" width="2.54732" height="2.54732" fill="#1B1B1B" stroke="#1B1B1B" stroke-width="0.5" />
    <rect x="32.5183" y="28.8797" width="2.54732" height="2.54732" fill="#1B1B1B" stroke="#1B1B1B" stroke-width="0.5" />
    <rect x="35.0515" y="31.4271" width="2.54732" height="2.54732" fill="#1B1B1B" stroke="#1B1B1B" stroke-width="0.5" />
    <rect x="35.0515" y="13.4954" width="2.54732" height="2.54732" fill="#1B1B1B" stroke="#1B1B1B" stroke-width="0.5" />
    <rect x="37.5827" y="31.4271" width="2.54732" height="2.54732" fill="#1B1B1B" stroke="#1B1B1B" stroke-width="0.5" />
    <rect x="37.5827" y="13.5226" width="2.54732" height="2.54732" fill="#1B1B1B" stroke="#1B1B1B" stroke-width="0.5" />
    <rect x="40.1159" y="31.4271" width="2.54732" height="2.54732" fill="#1B1B1B" stroke="#1B1B1B" stroke-width="0.5" />
    <rect x="40.1159" y="13.5226" width="2.54732" height="2.54732" fill="#1B1B1B" stroke="#1B1B1B" stroke-width="0.5" />
    <rect x="42.6472" y="31.4543" width="2.54732" height="2.54732" fill="#1B1B1B" stroke="#1B1B1B" stroke-width="0.5" />
    <rect x="42.6472" y="13.5226" width="2.54732" height="2.54732" fill="#1B1B1B" stroke="#1B1B1B" stroke-width="0.5" />
    <rect x="45.1784" y="28.8797" width="2.54732" height="2.54732" fill="#1B1B1B" stroke="#1B1B1B" stroke-width="0.5" />
    <rect x="47.7026" y="26.3202" width="2.54732" height="2.54732" fill="#1B1B1B" stroke="#1B1B1B" stroke-width="0.5" />
    <rect x="47.7026" y="23.7566" width="2.54732" height="2.54732" fill="#1B1B1B" stroke="#1B1B1B" stroke-width="0.5" />
    <rect x="47.7026" y="21.1931" width="2.54732" height="2.54732" fill="#1B1B1B" stroke="#1B1B1B" stroke-width="0.5" />
    <rect x="47.7026" y="18.6336" width="2.54732" height="2.54732" fill="#1B1B1B" stroke="#1B1B1B" stroke-width="0.5" />
    <rect x="14.5" y="9.92819" width="16.3669" height="2.20591" fill="#1B1B1B" />
    <rect x="14.5" y="12.1336" width="3.27338" height="14.3384" fill="#1B1B1B" />
    <rect x="12.3184" y="20.955" width="2.18225" height="5.51477" fill="#1B1B1B" />
    <rect x="6.86328" y="23.1644" width="4.3645" height="3.30886" fill="#1B1B1B" />
    <rect x="38.5039" y="4.41074" width="3.27338" height="19.8532" fill="#1B1B1B" />
    <rect x="36.3242" y="3.30806" width="8.729" height="2.20591" fill="#1B1B1B" />
    <rect x="14.5" y="2.20537" width="3.27338" height="7.72068" fill="#1B1B1B" />
    <rect x="11.2285" width="9.82013" height="2.20591" fill="#1B1B1B" />
    <path d="M14.5019 4.41128V2.20537H11.2285L14.5019 4.41128Z" fill="#1B1B1B" />
    <rect x="30.8691" y="9.92819" width="7.63788" height="2.20591" fill="#1B1B1B" />
    <path d="M13.4107 26.4698V20.955L7.95508 26.4698H13.4107Z" fill="#1B1B1B" />
    <path d="M41.7767 23.1609V20.955L43.959 23.1609H41.7767Z" fill="#1B1B1B" />
    <path d="M38.5065 23.1609V20.955L36.3242 23.1609H38.5065Z" fill="#1B1B1B" />
    <path d="M17.7725 26.4685L38.5039 12.1301" stroke="#1B1B1B" stroke-width="3" />
    <rect x="36.3242" y="23.1644" width="7.63788" height="3.30886" fill="#1B1B1B" />
</svg>