<svg width="51" height="34" viewBox="0 0 51 34" fill="none" xmlns="http://www.w3.org/2000/svg">
    <rect x="0.5" y="24.5926" width="2.71861" height="2.71861" fill="#1B1B1B" stroke="#1B1B1B" />
    <rect x="0.5" y="21.8749" width="2.71861" height="2.71861" fill="#1B1B1B" stroke="#1B1B1B" />
    <rect x="0.5" y="19.1573" width="2.71861" height="2.71861" fill="#1B1B1B" stroke="#1B1B1B" />
    <rect x="0.5" y="16.4397" width="2.71861" height="2.71861" fill="#1B1B1B" stroke="#1B1B1B" />
    <rect x="3.21764" y="13.7176" width="2.71861" height="2.71861" fill="#1B1B1B" stroke="#1B1B1B" />
    <rect x="16.8102" y="13.7176" width="2.71861" height="2.71861" fill="#1B1B1B" stroke="#1B1B1B" />
    <rect x="3.21764" y="27.3102" width="2.71861" height="2.71861" fill="#1B1B1B" stroke="#1B1B1B" />
    <rect x="5.93747" y="30.0323" width="2.71861" height="2.71861" fill="#1B1B1B" stroke="#1B1B1B" />
    <rect x="5.93747" y="11" width="2.71861" height="2.71861" fill="#1B1B1B" stroke="#1B1B1B" />
    <rect x="8.65511" y="30.0323" width="2.71861" height="2.71861" fill="#1B1B1B" stroke="#1B1B1B" />
    <rect x="8.65511" y="11" width="2.71861" height="2.71861" fill="#1B1B1B" stroke="#1B1B1B" />
    <rect x="11.3749" y="30.0323" width="2.71861" height="2.71861" fill="#1B1B1B" stroke="#1B1B1B" />
    <rect x="11.3749" y="11" width="2.71861" height="2.71861" fill="#1B1B1B" stroke="#1B1B1B" />
    <rect x="14.0926" y="30.0323" width="2.71861" height="2.71861" fill="#1B1B1B" stroke="#1B1B1B" />
    <rect x="14.0926" y="11" width="2.71861" height="2.71861" fill="#1B1B1B" stroke="#1B1B1B" />
    <rect x="16.8102" y="27.3102" width="2.71861" height="2.71861" fill="#1B1B1B" stroke="#1B1B1B" />
    <rect x="19.5301" y="24.5926" width="2.71861" height="2.71861" fill="#1B1B1B" stroke="#1B1B1B" />
    <rect x="19.5301" y="21.8749" width="2.71861" height="2.71861" fill="#1B1B1B" stroke="#1B1B1B" />
    <rect x="19.5301" y="19.1573" width="2.71861" height="2.71861" fill="#1B1B1B" stroke="#1B1B1B" />
    <rect x="19.5301" y="16.4397" width="2.71861" height="2.71861" fill="#1B1B1B" stroke="#1B1B1B" />
    <rect x="28.3477" y="24.5926" width="2.71861" height="2.71861" fill="#1B1B1B" stroke="#1B1B1B" />
    <rect x="28.3477" y="21.8749" width="2.71861" height="2.71861" fill="#1B1B1B" stroke="#1B1B1B" />
    <rect x="28.3477" y="19.1573" width="2.71861" height="2.71861" fill="#1B1B1B" stroke="#1B1B1B" />
    <rect x="28.3477" y="16.4397" width="2.71861" height="2.71861" fill="#1B1B1B" stroke="#1B1B1B" />
    <rect x="31.0653" y="13.7176" width="2.71861" height="2.71861" fill="#1B1B1B" stroke="#1B1B1B" />
    <rect x="44.6579" y="13.7176" width="2.71861" height="2.71861" fill="#1B1B1B" stroke="#1B1B1B" />
    <rect x="31.0653" y="27.3102" width="2.71861" height="2.71861" fill="#1B1B1B" stroke="#1B1B1B" />
    <rect x="33.7851" y="30.0323" width="2.71861" height="2.71861" fill="#1B1B1B" stroke="#1B1B1B" />
    <rect x="33.7851" y="11" width="2.71861" height="2.71861" fill="#1B1B1B" stroke="#1B1B1B" />
    <rect x="36.5028" y="30.0323" width="2.71861" height="2.71861" fill="#1B1B1B" stroke="#1B1B1B" />
    <rect x="36.5028" y="11" width="2.71861" height="2.71861" fill="#1B1B1B" stroke="#1B1B1B" />
    <rect x="39.2226" y="30.0323" width="2.71861" height="2.71861" fill="#1B1B1B" stroke="#1B1B1B" />
    <rect x="39.2226" y="11" width="2.71861" height="2.71861" fill="#1B1B1B" stroke="#1B1B1B" />
    <rect x="41.9402" y="30.0323" width="2.71861" height="2.71861" fill="#1B1B1B" stroke="#1B1B1B" />
    <rect x="41.9402" y="11" width="2.71861" height="2.71861" fill="#1B1B1B" stroke="#1B1B1B" />
    <rect x="44.6579" y="27.3102" width="2.71861" height="2.71861" fill="#1B1B1B" stroke="#1B1B1B" />
    <rect x="47.3777" y="24.5926" width="2.71861" height="2.71861" fill="#1B1B1B" stroke="#1B1B1B" />
    <rect x="47.3777" y="21.8749" width="2.71861" height="2.71861" fill="#1B1B1B" stroke="#1B1B1B" />
    <rect x="47.3777" y="19.1573" width="2.71861" height="2.71861" fill="#1B1B1B" stroke="#1B1B1B" />
    <rect x="47.3777" y="16.4397" width="2.71861" height="2.71861" fill="#1B1B1B" stroke="#1B1B1B" />
    <rect x="11.369" y="18.7044" width="7.60861" height="5.50054" fill="#1B1B1B" />
    <path d="M32.0217 14.1926L18.9784 24.2035V18.703L30.2227 9.90209H32.0217L34.7391 12.1023L32.0217 14.1926Z"
        fill="#1B1B1B" />
    <rect x="12.4569" y="7.69849" width="19.565" height="2.20022" fill="#1B1B1B" />
    <rect x="11.369" y="7.69849" width="5.43472" height="14.3014" fill="#1B1B1B" />
    <rect x="36.371" y="3.29935" width="5.43472" height="18.7018" fill="#1B1B1B" />
    <rect x="36.371" y="1.09978" width="5.43472" height="2.20022" fill="#1B1B1B" />
    <rect x="41.8046" y="1.09978" width="5.43472" height="2.20022" fill="#1B1B1B" />
    <rect x="47.2401" y="1.09978" width="1.08694" height="7.70076" fill="#1B1B1B" />
    <path d="M41.8057 22.0037V24.204L36.371 22.0037H41.8057Z" fill="#1B1B1B" />
    <rect x="11.369" y="2.19957" width="4.34778" height="5.50054" fill="#1B1B1B" />
    <rect x="8.10925" width="11.9564" height="2.20022" fill="#1B1B1B" />
    <path d="M47.2402 7.69978V3.29935H42.8925L47.2402 7.69978Z" fill="#1B1B1B" />
    <path d="M47.2402 7.69978V3.29935H42.8925L47.2402 7.69978Z" fill="#1B1B1B" />
    <path d="M47.2402 6.60209V8.8023H42.8925L47.2402 6.60209Z" fill="#1B1B1B" />
    <path d="M11.3701 4.39978V2.19957H8.10925L11.3701 4.39978Z" fill="#1B1B1B" />
    <rect x="32.0214" y="7.69849" width="4.34778" height="4.40043" fill="#1B1B1B" />
</svg>