<svg width="52" height="34" viewBox="0 0 52 34" fill="none" xmlns="http://www.w3.org/2000/svg">
    <rect x="30.7148" y="25.5469" width="2.55813" height="2.55813" fill="#1B1B1B" />
    <rect y="25.5469" width="2.55813" height="2.55813" fill="#1B1B1B" />
    <rect x="30.7148" y="22.9883" width="2.55813" height="2.55813" fill="#1B1B1B" />
    <rect y="22.9883" width="2.55813" height="2.55813" fill="#1B1B1B" />
    <rect x="30.7148" y="20.4297" width="2.55813" height="2.55813" fill="#1B1B1B" />
    <rect y="20.4297" width="2.55813" height="2.55813" fill="#1B1B1B" />
    <rect x="30.7148" y="17.875" width="2.55813" height="2.55813" fill="#1B1B1B" />
    <rect y="17.875" width="2.55813" height="2.55813" fill="#1B1B1B" />
    <rect x="33.2734" y="15.3164" width="2.55813" height="2.55813" fill="#1B1B1B" />
    <rect x="2.55859" y="15.3164" width="2.55813" height="2.55813" fill="#1B1B1B" />
    <rect x="46.0645" y="15.3164" width="2.55813" height="2.55813" fill="#1B1B1B" />
    <rect x="33.2734" y="28.1055" width="2.55813" height="2.55813" fill="#1B1B1B" />
    <rect x="2.55859" y="28.1055" width="2.55813" height="2.55813" fill="#1B1B1B" />
    <rect x="35.832" y="30.6641" width="2.55813" height="2.55813" fill="#1B1B1B" />
    <rect x="5.11523" y="30.6641" width="2.55813" height="2.55813" fill="#1B1B1B" />
    <rect x="35.832" y="12.7578" width="2.55813" height="2.55813" fill="#1B1B1B" />
    <rect x="5.11523" y="12.7578" width="2.55813" height="2.55813" fill="#1B1B1B" />
    <rect x="38.3906" y="30.6641" width="2.55813" height="2.55813" fill="#1B1B1B" />
    <rect x="7.67383" y="30.6641" width="2.55813" height="2.55813" fill="#1B1B1B" />
    <rect x="38.3906" y="12.7578" width="2.55813" height="2.55813" fill="#1B1B1B" />
    <rect x="7.67383" y="12.7578" width="2.55813" height="2.55813" fill="#1B1B1B" />
    <rect x="40.9473" y="30.6641" width="2.55813" height="2.55813" fill="#1B1B1B" />
    <rect x="10.2324" y="30.6641" width="2.55813" height="2.55813" fill="#1B1B1B" />
    <rect x="40.9473" y="20.4297" width="2.55813" height="2.55813" fill="#1B1B1B" />
    <rect x="38.3906" y="17.875" width="2.55813" height="2.55813" fill="#1B1B1B" />
    <rect x="38.3906" y="15.3164" width="2.55813" height="2.55813" fill="#1B1B1B" />
    <rect x="35.8322" y="10.1994" width="2.55813" height="2.55813" fill="#1B1B1B" />
    <rect x="32.9941" y="8.73438" width="2.55813" height="2.55813" fill="#1B1B1B" />
    <rect x="35.5332" y="8.77344" width="2.86074" height="2.55961" fill="#1B1B1B" />
    <rect x="30.707" y="8.73438" width="2.55813" height="2.55813" fill="#1B1B1B" />
    <rect x="17.9062" y="20.4297" width="2.55813" height="2.55813" fill="#1B1B1B" />
    <rect x="17.9062" y="22.9883" width="2.55813" height="2.55813" fill="#1B1B1B" />
    <rect x="28.1484" y="8.73438" width="2.55813" height="2.55813" fill="#1B1B1B" />
    <rect x="25.5918" y="8.73438" width="2.55813" height="2.55813" fill="#1B1B1B" />
    <rect x="23.0332" y="8.73438" width="2.55813" height="2.55813" fill="#1B1B1B" />
    <rect x="20.4746" y="8.73438" width="2.55813" height="2.55813" fill="#1B1B1B" />
    <rect x="15.3577" y="7.67979" width="2.55813" height="2.55813" fill="#1B1B1B" />
    <rect x="15.3574" y="10.2383" width="2.55813" height="2.55813" fill="#1B1B1B" />
    <rect x="15.3577" y="7.67979" width="2.55813" height="2.55813" fill="#1B1B1B" />
    <rect x="17.918" y="8.77344" width="2.55813" height="2.55813" fill="#1B1B1B" />
    <rect x="12.7988" y="10.2383" width="2.55813" height="2.55813" fill="#1B1B1B" />
    <rect x="10.3887" y="15.207" width="2.55813" height="2.55813" fill="#1B1B1B" />
    <rect x="7.83008" y="17.7695" width="2.55813" height="2.55813" fill="#1B1B1B" />
    <rect x="5.26953" y="20.3281" width="2.55813" height="2.55813" fill="#1B1B1B" />
    <rect x="5.26953" y="22.8867" width="2.55813" height="2.55813" fill="#1B1B1B" />
    <rect x="7.83008" y="22.8867" width="2.55813" height="2.55813" fill="#1B1B1B" />
    <rect x="10.3887" y="22.8867" width="2.55813" height="2.55813" fill="#1B1B1B" />
    <rect x="12.9492" y="22.8867" width="2.55813" height="2.55813" fill="#1B1B1B" />
    <rect x="15.5078" y="22.8867" width="2.55813" height="2.55813" fill="#1B1B1B" />
    <rect x="20.4766" y="22.8867" width="2.55813" height="2.55813" fill="#1B1B1B" />
    <rect x="23.0371" y="20.3281" width="2.55813" height="2.55813" fill="#1B1B1B" />
    <rect x="25.5957" y="17.7695" width="2.55813" height="2.55813" fill="#1B1B1B" />
    <rect x="28.1562" y="15.207" width="2.55813" height="2.55813" fill="#1B1B1B" />
    <rect x="30.7148" y="12.6484" width="2.55813" height="2.55813" fill="#1B1B1B" />
    <rect x="32.9746" y="10.0898" width="2.55813" height="2.55813" fill="#1B1B1B" />
    <rect x="15.3574" y="2.5625" width="2.55961" height="3.01131" fill="#1B1B1B" />
    <rect x="15.3496" y="12.7578" width="2.55813" height="2.55813" fill="#1B1B1B" />
    <rect x="15.3496" y="15.3164" width="2.55813" height="2.55813" fill="#1B1B1B" />
    <rect x="15.3574" y="5.17578" width="2.55813" height="2.55813" fill="#1B1B1B" />
    <rect x="8.88281" y="12.7578" width="2.55813" height="2.55813" fill="#1B1B1B" />
    <rect x="17.9062" y="15.3164" width="2.55813" height="2.55813" fill="#1B1B1B" />
    <rect x="17.9062" y="17.875" width="2.55813" height="2.55813" fill="#1B1B1B" />
    <rect x="17.9062" y="20.4297" width="2.55813" height="2.55813" fill="#1B1B1B" />
    <rect x="14.002" width="2.55813" height="2.55813" fill="#1B1B1B" />
    <rect x="16.5605" width="2.55813" height="2.55813" fill="#1B1B1B" />
    <rect x="19.123" width="2.55813" height="2.55813" fill="#1B1B1B" />
    <rect x="40.9473" y="2.52344" width="2.55813" height="2.55813" fill="#1B1B1B" />
    <rect x="43.502" y="2.52344" width="2.55813" height="2.55813" fill="#1B1B1B" />
    <rect x="43.502" width="2.55813" height="2.55813" fill="#1B1B1B" />
    <rect x="38.3906" y="10.1992" width="2.55813" height="2.55813" fill="#1B1B1B" />
    <rect x="38.3906" y="7.64062" width="2.55813" height="2.55813" fill="#1B1B1B" />
    <rect x="38.3906" y="5.08203" width="2.55813" height="2.55813" fill="#1B1B1B" />
    <rect x="38.3906" y="2.52344" width="2.55813" height="2.55813" fill="#1B1B1B" />
    <rect x="40.9473" y="22.9883" width="2.55813" height="2.55813" fill="#1B1B1B" />
    <rect x="40.9473" y="12.7578" width="2.55813" height="2.55813" fill="#1B1B1B" />
    <rect x="10.2324" y="12.7578" width="2.55813" height="2.55813" fill="#1B1B1B" />
    <rect x="43.5059" y="30.6641" width="2.55813" height="2.55813" fill="#1B1B1B" />
    <rect x="12.791" y="30.6641" width="2.55813" height="2.55813" fill="#1B1B1B" />
    <rect x="43.5059" y="12.7578" width="2.55813" height="2.55813" fill="#1B1B1B" />
    <rect x="12.791" y="12.7578" width="2.55813" height="2.55813" fill="#1B1B1B" />
    <rect x="46.0645" y="28.1055" width="2.55813" height="2.55813" fill="#1B1B1B" />
    <rect x="15.3496" y="28.1055" width="2.55813" height="2.55813" fill="#1B1B1B" />
    <rect x="48.623" y="25.5469" width="2.55813" height="2.55813" fill="#1B1B1B" />
    <rect x="17.9062" y="25.5469" width="2.55813" height="2.55813" fill="#1B1B1B" />
    <rect x="48.623" y="22.9883" width="2.55813" height="2.55813" fill="#1B1B1B" />
    <rect x="48.623" y="20.4297" width="2.55813" height="2.55813" fill="#1B1B1B" />
    <rect x="48.623" y="17.875" width="2.55813" height="2.55813" fill="#1B1B1B" />
    <rect x="17.9062" y="17.875" width="2.55813" height="2.55813" fill="#1B1B1B" />
</svg>