<svg width="52" height="35" viewBox="0 0 52 35" fill="none" xmlns="http://www.w3.org/2000/svg">
    <rect x="30.6055" y="27.0079" width="2.57328" height="2.57328" fill="#1B1B1B" />
    <rect y="27.0079" width="2.57328" height="2.57328" fill="#1B1B1B" />
    <rect x="30.6055" y="24.4337" width="2.57328" height="2.57328" fill="#1B1B1B" />
    <rect y="24.4339" width="2.57328" height="2.57328" fill="#1B1B1B" />
    <rect x="30.6055" y="21.8595" width="2.57328" height="2.57328" fill="#1B1B1B" />
    <rect y="21.8595" width="2.57328" height="2.57328" fill="#1B1B1B" />
    <rect x="30.6055" y="19.2892" width="2.57328" height="2.57328" fill="#1B1B1B" />
    <rect y="19.2892" width="2.57328" height="2.57328" fill="#1B1B1B" />
    <rect x="33.1797" y="16.715" width="2.57328" height="2.57328" fill="#1B1B1B" />
    <rect x="2.57422" y="16.715" width="2.57328" height="2.57328" fill="#1B1B1B" />
    <rect x="46.0469" y="16.715" width="2.57328" height="2.57328" fill="#1B1B1B" />
    <rect x="33.1797" y="29.5822" width="2.57328" height="2.57328" fill="#1B1B1B" />
    <rect x="2.57422" y="29.5822" width="2.57328" height="2.57328" fill="#1B1B1B" />
    <rect x="35.7539" y="32.1525" width="2.57328" height="2.57328" fill="#1B1B1B" />
    <rect x="5.14648" y="32.1525" width="2.57328" height="2.57328" fill="#1B1B1B" />
    <rect x="35.7539" y="14.1408" width="2.57328" height="2.57328" fill="#1B1B1B" />
    <rect x="5.14628" y="14.1408" width="2.57328" height="2.57328" fill="#1B1B1B" />
    <rect x="38.3262" y="32.1525" width="2.57328" height="2.57328" fill="#1B1B1B" />
    <rect x="7.7207" y="32.1525" width="2.57328" height="2.57328" fill="#1B1B1B" />
    <rect x="38.3262" y="14.1408" width="2.57328" height="2.57328" fill="#1B1B1B" />
    <rect x="7.7207" y="14.1408" width="2.57328" height="2.57328" fill="#1B1B1B" />
    <rect x="40.8984" y="32.1525" width="2.57328" height="2.57328" fill="#1B1B1B" />
    <rect x="10.293" y="32.1525" width="2.57328" height="2.57328" fill="#1B1B1B" />
    <rect x="40.8984" y="21.8595" width="2.57328" height="2.57328" fill="#1B1B1B" />
    <rect x="38.3262" y="19.2892" width="2.57328" height="2.57328" fill="#1B1B1B" />
    <rect x="38.3262" y="16.715" width="2.57328" height="2.57328" fill="#1B1B1B" />
    <rect x="35.7539" y="11.5665" width="2.57328" height="2.57328" fill="#1B1B1B" />
    <rect x="35.7539" y="8.99622" width="2.57328" height="2.57328" fill="#1B1B1B" />
    <rect x="33.4531" y="8.99622" width="2.57328" height="2.57328" fill="#1B1B1B" />
    <rect x="18.0137" y="21.8595" width="2.57328" height="2.57328" fill="#1B1B1B" />
    <rect x="18.0137" y="24.4337" width="2.57328" height="2.57328" fill="#1B1B1B" />
    <rect x="30.8789" y="8.99622" width="2.57328" height="2.57328" fill="#1B1B1B" />
    <rect x="28.3066" y="8.99622" width="2.57328" height="2.57328" fill="#1B1B1B" />
    <rect x="25.7324" y="8.99622" width="2.57328" height="2.57328" fill="#1B1B1B" />
    <rect x="23.1602" y="8.99622" width="2.57328" height="2.57328" fill="#1B1B1B" />
    <rect x="20.5859" y="8.99622" width="2.57328" height="2.57328" fill="#1B1B1B" />
    <rect x="18.0137" y="8.99622" width="2.57328" height="2.57328" fill="#1B1B1B" />
    <rect x="15.4395" y="14.1408" width="2.57328" height="2.57328" fill="#1B1B1B" />
    <rect x="15.4395" y="16.715" width="2.57328" height="2.57328" fill="#1B1B1B" />
    <rect x="18.0137" y="11.5665" width="2.57328" height="2.57328" fill="#1B1B1B" />
    <rect x="18.0137" y="14.1408" width="2.57328" height="2.57328" fill="#1B1B1B" />
    <rect x="18.0137" y="16.715" width="2.57328" height="2.57328" fill="#1B1B1B" />
    <rect x="18.0137" y="19.2892" width="2.57328" height="2.57328" fill="#1B1B1B" />
    <rect x="18.0137" y="21.8595" width="2.57328" height="2.57328" fill="#1B1B1B" />
    <rect x="18.0137" y="6.422" width="2.57328" height="2.57328" fill="#1B1B1B" />
    <rect x="18.0137" y="3.84778" width="2.57328" height="2.57328" fill="#1B1B1B" />
    <rect x="18.0137" y="2.55091" width="2.57442" height="1.43466" fill="#1B1B1B" />
    <rect x="16.7617" y="0.000125885" width="2.57328" height="2.57328" fill="#1B1B1B" />
    <rect x="19.3341" width="2.57328" height="2.57328" fill="#1B1B1B" />
    <rect x="21.9082" y="0.000125885" width="2.57328" height="2.57328" fill="#1B1B1B" />
    <rect x="14.1875" y="0.000125885" width="2.57328" height="2.57328" fill="#1B1B1B" />
    <rect x="40.8984" y="3.84778" width="2.57328" height="2.57328" fill="#1B1B1B" />
    <rect x="43.3809" y="6.37513" width="2.57328" height="2.57328" fill="#1B1B1B" />
    <rect x="38.3262" y="11.5665" width="2.57328" height="2.57328" fill="#1B1B1B" />
    <rect x="38.3262" y="8.99622" width="2.57328" height="2.57328" fill="#1B1B1B" />
    <rect x="38.3262" y="6.422" width="2.57328" height="2.57328" fill="#1B1B1B" />
    <rect x="38.3262" y="3.84765" width="2.57328" height="2.57328" fill="#1B1B1B" />
    <rect x="40.8984" y="24.4337" width="2.57328" height="2.57328" fill="#1B1B1B" />
    <rect x="40.8984" y="14.1408" width="2.57328" height="2.57328" fill="#1B1B1B" />
    <rect x="10.2928" y="14.1408" width="2.57328" height="2.57328" fill="#1B1B1B" />
    <rect x="10.3613" y="22.4767" width="2.57328" height="2.57328" fill="#1B1B1B" />
    <rect x="9.08594" y="19.9259" width="2.57328" height="2.57328" fill="#1B1B1B" />
    <rect x="9.08594" y="25.0275" width="2.57328" height="2.57328" fill="#1B1B1B" />
    <rect x="7.81055" y="22.1564" width="2.5505" height="3.18813" fill="#1B1B1B" />
    <rect x="12.9121" y="22.4767" width="2.57328" height="2.57328" fill="#1B1B1B" />
    <rect x="15.4629" y="22.4767" width="2.57328" height="2.57328" fill="#1B1B1B" />
    <rect x="20.5645" y="22.4767" width="2.57328" height="2.57328" fill="#1B1B1B" />
    <rect x="20.5645" y="19.9259" width="2.57328" height="2.57328" fill="#1B1B1B" />
    <rect x="23.1133" y="19.9259" width="2.57328" height="2.57328" fill="#1B1B1B" />
    <rect x="23.1133" y="17.3751" width="2.57328" height="2.57328" fill="#1B1B1B" />
    <rect x="25.6641" y="17.3751" width="2.57328" height="2.57328" fill="#1B1B1B" />
    <rect x="25.6641" y="14.8243" width="2.57328" height="2.57328" fill="#1B1B1B" />
    <rect x="28.2148" y="14.8242" width="2.57328" height="2.57328" fill="#1B1B1B" />
    <rect x="28.2148" y="12.2736" width="2.57328" height="2.57328" fill="#1B1B1B" />
    <rect x="30.7656" y="12.2736" width="2.57328" height="2.57328" fill="#1B1B1B" />
    <rect x="30.7656" y="9.72279" width="4.9416" height="2.5505" fill="#1B1B1B" />
    <rect x="43.4727" y="32.1525" width="2.57328" height="2.57328" fill="#1B1B1B" />
    <rect x="12.8672" y="32.1525" width="2.57328" height="2.57328" fill="#1B1B1B" />
    <rect x="43.4725" y="14.1408" width="2.57328" height="2.57328" fill="#1B1B1B" />
    <rect x="12.8672" y="14.1408" width="2.57328" height="2.57328" fill="#1B1B1B" />
    <rect x="46.0469" y="29.5822" width="2.57328" height="2.57328" fill="#1B1B1B" />
    <rect x="15.4395" y="29.5822" width="2.57328" height="2.57328" fill="#1B1B1B" />
    <rect x="48.6191" y="27.0079" width="2.57328" height="2.57328" fill="#1B1B1B" />
    <rect x="18.0137" y="27.0079" width="2.57328" height="2.57328" fill="#1B1B1B" />
    <rect x="48.6191" y="24.4339" width="2.57328" height="2.57328" fill="#1B1B1B" />
    <rect x="48.6191" y="21.8595" width="2.57328" height="2.57328" fill="#1B1B1B" />
    <rect x="48.6191" y="19.2892" width="2.57328" height="2.57328" fill="#1B1B1B" />
    <rect x="18.0137" y="19.2892" width="2.57328" height="2.57328" fill="#1B1B1B" />
</svg>