<svg width="52" height="32" viewBox="0 0 52 32" fill="none" xmlns="http://www.w3.org/2000/svg">
    <rect x="31.5977" y="24.3047" width="2.43055" height="2.43055" fill="#1B1B1B" />
    <rect y="24.3047" width="2.43055" height="2.43055" fill="#1B1B1B" />
    <rect x="31.5977" y="21.875" width="2.43055" height="2.43055" fill="#1B1B1B" />
    <rect y="21.8749" width="2.43055" height="2.43055" fill="#1B1B1B" />
    <rect x="31.5977" y="19.4453" width="2.43055" height="2.43055" fill="#1B1B1B" />
    <rect y="19.4453" width="2.43055" height="2.43055" fill="#1B1B1B" />
    <rect x="31.5977" y="17.0156" width="2.43055" height="2.43055" fill="#1B1B1B" />
    <rect y="17.0156" width="2.43055" height="2.43055" fill="#1B1B1B" />
    <rect x="34.0273" y="14.582" width="2.43055" height="2.43055" fill="#1B1B1B" />
    <rect x="2.43164" y="14.582" width="2.43055" height="2.43055" fill="#1B1B1B" />
    <rect x="46.1797" y="14.582" width="2.43055" height="2.43055" fill="#1B1B1B" />
    <rect x="34.0273" y="26.7344" width="2.43055" height="2.43055" fill="#1B1B1B" />
    <rect x="2.43164" y="26.7344" width="2.43055" height="2.43055" fill="#1B1B1B" />
    <rect x="36.459" y="29.168" width="2.43055" height="2.43055" fill="#1B1B1B" />
    <rect x="4.86133" y="29.168" width="2.43055" height="2.43055" fill="#1B1B1B" />
    <rect x="36.459" y="12.1523" width="2.43055" height="2.43055" fill="#1B1B1B" />
    <rect x="4.86133" y="12.1523" width="2.43055" height="2.43055" fill="#1B1B1B" />
    <rect x="38.8887" y="29.168" width="2.43055" height="2.43055" fill="#1B1B1B" />
    <rect x="7.29102" y="29.168" width="2.43055" height="2.43055" fill="#1B1B1B" />
    <rect x="38.8888" y="12.1523" width="2.43055" height="2.43055" fill="#1B1B1B" />
    <rect x="7.29102" y="12.1523" width="2.43055" height="2.43055" fill="#1B1B1B" />
    <rect x="41.3203" y="29.168" width="2.43055" height="2.43055" fill="#1B1B1B" />
    <rect x="9.72266" y="29.168" width="2.43055" height="2.43055" fill="#1B1B1B" />
    <rect x="41.3203" y="19.4453" width="2.43055" height="2.43055" fill="#1B1B1B" />
    <rect x="38.8887" y="17.0156" width="2.43055" height="2.43055" fill="#1B1B1B" />
    <rect x="38.8887" y="14.582" width="2.43055" height="2.43055" fill="#1B1B1B" />
    <rect x="36.459" y="9.72266" width="2.43055" height="2.43055" fill="#1B1B1B" />
    <rect x="36.459" y="7.29297" width="2.43055" height="2.43055" fill="#1B1B1B" />
    <rect x="34.0273" y="7.29297" width="2.43055" height="2.43055" fill="#1B1B1B" />
    <rect x="31.5977" y="7.29297" width="2.43055" height="2.43055" fill="#1B1B1B" />
    <rect x="31.5977" y="9.72266" width="2.43055" height="2.43055" fill="#1B1B1B" />
    <rect x="29.166" y="9.72266" width="2.43055" height="2.43055" fill="#1B1B1B" />
    <rect x="29.166" y="12.1523" width="2.43055" height="2.43055" fill="#1B1B1B" />
    <rect x="24.3066" y="17.0156" width="2.43055" height="2.43055" fill="#1B1B1B" />
    <rect x="19.4453" y="19.4453" width="2.43055" height="2.43055" fill="#1B1B1B" />
    <rect x="19.4453" y="21.875" width="2.43055" height="2.43055" fill="#1B1B1B" />
    <rect x="26.7363" y="12.1523" width="2.43055" height="2.43055" fill="#1B1B1B" />
    <rect x="21.875" y="17.0156" width="2.43055" height="2.43055" fill="#1B1B1B" />
    <rect x="17.0137" y="19.4453" width="2.43055" height="2.43055" fill="#1B1B1B" />
    <rect x="26.7363" y="14.582" width="2.43055" height="2.43055" fill="#1B1B1B" />
    <rect x="21.875" y="19.4453" width="2.43055" height="2.43055" fill="#1B1B1B" />
    <rect x="17.0139" y="21.8749" width="2.43055" height="2.43055" fill="#1B1B1B" />
    <rect x="14.2188" y="21.875" width="2.79514" height="2.43055" fill="#1B1B1B" />
    <rect x="14.2188" y="19.4453" width="2.79514" height="2.43055" fill="#1B1B1B" />
    <rect x="11.3027" y="21.875" width="2.91667" height="2.43055" fill="#1B1B1B" />
    <rect x="8.50781" y="21.875" width="2.79514" height="2.43055" fill="#1B1B1B" />
    <rect x="11.3027" y="20.6602" width="2.91667" height="1.21528" fill="#1B1B1B" />
    <rect x="24.3066" y="14.582" width="2.43055" height="2.43055" fill="#1B1B1B" />
    <rect x="29.166" y="7.29297" width="2.43055" height="2.43055" fill="#1B1B1B" />
    <rect x="26.7363" y="7.29297" width="2.43055" height="2.43055" fill="#1B1B1B" />
    <rect x="24.3066" y="7.29297" width="2.43055" height="2.43055" fill="#1B1B1B" />
    <rect x="21.875" y="7.29297" width="2.43055" height="2.43055" fill="#1B1B1B" />
    <rect x="19.4453" y="7.29297" width="2.43055" height="2.43055" fill="#1B1B1B" />
    <rect x="17.0137" y="7.29297" width="2.43055" height="2.43055" fill="#1B1B1B" />
    <rect x="14.584" y="9.72266" width="2.43055" height="2.43055" fill="#1B1B1B" />
    <rect x="12.1523" y="10.9375" width="2.43055" height="1.21528" fill="#1B1B1B" />
    <rect x="9.72266" y="10.9375" width="2.43055" height="1.21528" fill="#1B1B1B" />
    <rect x="14.584" y="7.29297" width="2.43055" height="2.43055" fill="#1B1B1B" />
    <rect x="14.584" y="12.1523" width="2.43055" height="2.43055" fill="#1B1B1B" />
    <rect x="14.584" y="14.582" width="2.43055" height="2.43055" fill="#1B1B1B" />
    <rect x="17.0137" y="9.72266" width="2.43055" height="2.43055" fill="#1B1B1B" />
    <rect x="17.0139" y="12.1523" width="2.43055" height="2.43055" fill="#1B1B1B" />
    <rect x="17.0137" y="14.582" width="2.43055" height="2.43055" fill="#1B1B1B" />
    <rect x="17.0137" y="17.0156" width="2.43055" height="2.43055" fill="#1B1B1B" />
    <rect x="17.0137" y="19.4453" width="2.43055" height="2.43055" fill="#1B1B1B" />
    <rect x="17.0137" y="4.85938" width="2.43055" height="2.43055" fill="#1B1B1B" />
    <rect x="17.0137" y="2.42969" width="2.43055" height="2.43055" fill="#1B1B1B" />
    <rect x="17.0139" width="2.43055" height="2.43055" fill="#1B1B1B" />
    <rect x="19.4453" width="2.43055" height="2.43055" fill="#1B1B1B" />
    <rect x="21.8749" width="2.43055" height="2.43055" fill="#1B1B1B" />
    <rect x="14.584" width="2.43055" height="2.43055" fill="#1B1B1B" />
    <rect x="12.1523" width="2.43055" height="2.43055" fill="#1B1B1B" />
    <rect x="33.0547" y="9.72266" width="3.40278" height="3.40278" fill="#1B1B1B" />
    <rect x="36.459" y="4.85938" width="2.43055" height="2.43055" fill="#1B1B1B" />
    <rect x="36.459" y="2.42969" width="2.43055" height="2.43055" fill="#1B1B1B" />
    <rect x="41.3203" y="2.42969" width="2.43055" height="2.43055" fill="#1B1B1B" />
    <rect x="38.8887" y="9.72266" width="2.43055" height="2.43055" fill="#1B1B1B" />
    <rect x="38.8887" y="7.29297" width="2.43055" height="2.43055" fill="#1B1B1B" />
    <rect x="38.8887" y="4.85938" width="2.43055" height="2.43055" fill="#1B1B1B" />
    <rect x="38.8887" y="2.42969" width="2.43055" height="2.43055" fill="#1B1B1B" />
    <rect x="43.75" y="2.42969" width="2.43055" height="2.43055" fill="#1B1B1B" />
    <rect x="46.1797" y="2.42969" width="2.43055" height="2.43055" fill="#1B1B1B" />
    <rect x="46.1797" y="4.85938" width="2.43055" height="2.43055" fill="#1B1B1B" />
    <rect x="46.1797" y="7.29297" width="2.43055" height="2.43055" fill="#1B1B1B" />
    <rect x="43.75" y="7.29297" width="2.43055" height="2.43055" fill="#1B1B1B" />
    <rect x="41.3203" y="21.875" width="2.43055" height="2.43055" fill="#1B1B1B" />
    <rect x="41.3203" y="12.1523" width="2.43055" height="2.43055" fill="#1B1B1B" />
    <rect x="9.72266" y="12.1523" width="2.43055" height="2.43055" fill="#1B1B1B" />
    <rect x="43.75" y="29.168" width="2.43055" height="2.43055" fill="#1B1B1B" />
    <rect x="12.1523" y="29.168" width="2.43055" height="2.43055" fill="#1B1B1B" />
    <rect x="43.7498" y="12.1523" width="2.43055" height="2.43055" fill="#1B1B1B" />
    <rect x="12.1523" y="12.1523" width="2.43055" height="2.43055" fill="#1B1B1B" />
    <rect x="46.1797" y="26.7344" width="2.43055" height="2.43055" fill="#1B1B1B" />
    <rect x="14.584" y="26.7344" width="2.43055" height="2.43055" fill="#1B1B1B" />
    <rect x="48.6113" y="24.3047" width="2.43055" height="2.43055" fill="#1B1B1B" />
    <rect x="17.0137" y="24.3047" width="2.43055" height="2.43055" fill="#1B1B1B" />
    <rect x="48.6113" y="21.875" width="2.43055" height="2.43055" fill="#1B1B1B" />
    <rect x="48.6113" y="19.4453" width="2.43055" height="2.43055" fill="#1B1B1B" />
    <rect x="48.6113" y="17.0156" width="2.43055" height="2.43055" fill="#1B1B1B" />
    <rect x="17.0137" y="17.0156" width="2.43055" height="2.43055" fill="#1B1B1B" />
</svg>